<svg width="108" height="102" viewBox="0 0 108 102" fill="none" xmlns="http://www.w3.org/2000/svg">
<path d="M103.59 44.2303C103.59 45.5843 103.135 46.9383 102.452 48.2923C99.4924 42.8763 90.8415 39.04 80.3693 39.04C70.1248 39.04 61.2462 42.8763 58.2867 48.2923C57.6037 46.9383 57.1484 45.8099 57.1484 44.2303C57.1484 36.7833 67.3929 30.916 80.1417 30.916C93.3457 30.916 103.59 36.7833 103.59 44.2303Z" fill="#FFE0B9"/>
<path d="M102.446 48.0648C99.4869 53.4808 90.836 57.3171 80.3639 57.3171C70.1193 57.3171 61.2408 53.4808 58.2812 48.0648C61.2408 42.6488 69.8917 38.8125 80.3639 38.8125C90.836 38.8125 99.4869 42.6488 102.446 48.0648Z" fill="#FFD499"/>
<path d="M100.397 50.7734C102.446 52.8044 103.584 54.8354 103.584 57.3177C103.584 64.7647 93.3396 70.632 80.5909 70.632C67.8422 70.632 57.5977 64.7647 57.5977 57.3177C57.5977 54.8354 58.7359 52.5788 60.5572 50.7734" fill="#F4C490"/>
<path d="M100.166 64.5391C102.215 66.5701 103.581 68.8267 103.581 71.5347C103.581 78.9817 93.3368 84.849 80.5881 84.849C67.8394 84.849 57.3672 78.756 57.3672 71.309C57.3672 68.8267 58.5055 66.5701 60.3267 64.7647" fill="#F4C490"/>
<path d="M100.169 78.5332C102.218 80.5642 103.584 82.8208 103.584 85.5288C103.584 92.9758 93.3396 98.8431 80.5909 98.8431C67.8422 98.8431 57.5977 92.9758 57.5977 85.5288C57.5977 83.0465 58.7359 80.7899 60.5572 78.9845" fill="#F4C490"/>
<path d="M47.8108 25.2754C47.8108 26.6294 47.5832 27.9834 47.3555 29.3374C45.5343 19.1824 36.4281 11.2841 25.5006 11.2841C14.5731 11.2841 5.46687 18.9568 3.64562 29.3374C3.64562 27.9834 3.41797 26.6294 3.41797 25.2754C3.41797 13.0894 13.4348 3.16016 25.7282 3.16016C37.794 3.38582 47.8108 13.0894 47.8108 25.2754Z" fill="#FFE0B9"/>
<path d="M25.7221 47.3897C37.7923 47.3897 47.5771 39.307 47.5771 29.3365C47.5771 19.3659 37.7923 11.2832 25.7221 11.2832C13.652 11.2832 3.86719 19.3659 3.86719 29.3365C3.86719 39.307 13.652 47.3897 25.7221 47.3897Z" fill="#FFD499"/>
<path d="M80.5917 27.3047C65.794 27.3047 54.1836 34.7517 54.1836 44.0039V85.3008C54.1836 94.5531 65.794 102 80.5917 102C95.3893 102 107 94.5531 107 85.3008C107 85.0751 107 85.0751 107 84.8494V84.6238V44.0039C107 34.7517 95.3893 27.3047 80.5917 27.3047ZM99.7148 55.7386C99.9424 56.4156 100.17 56.8669 100.17 57.5439C100.17 62.2829 92.2021 67.4732 80.5917 67.4732C68.9812 67.4732 61.0133 62.2829 61.0133 57.5439C61.0133 56.8669 61.2409 56.4156 61.4686 55.7386C66.2494 58.8979 73.079 60.9289 80.8193 60.9289C88.1043 60.7032 94.934 58.8979 99.7148 55.7386ZM60.7856 71.3095C60.7856 70.6325 61.0133 69.7298 61.4686 69.0528C66.2494 72.2122 72.8514 74.0175 80.5917 74.0175C88.1043 74.0175 94.934 72.2122 99.7148 69.0528C100.17 69.7298 100.398 70.6325 100.398 71.3095C100.398 76.0485 92.4298 81.2388 80.8193 81.2388C68.9812 81.2388 60.7856 76.0485 60.7856 71.3095ZM80.5917 34.0747C92.2021 34.0747 100.17 39.265 100.17 44.0039C100.17 48.7429 92.2021 53.9332 80.5917 53.9332C68.9812 53.9332 61.0133 48.7429 61.0133 44.0039C61.0133 39.265 68.9812 34.0747 80.5917 34.0747ZM80.5917 95.23C68.9812 95.23 61.0133 90.0397 61.0133 85.3008C61.0133 84.6238 61.2409 83.7211 61.6962 83.0441C66.477 86.2034 73.079 88.0088 80.8193 88.0088C88.332 88.0088 95.1616 86.2034 99.9424 83.0441C100.398 83.7211 100.625 84.6238 100.625 85.3008C100.17 90.0397 92.2021 95.23 80.5917 95.23Z" fill="#061649"/>
<path d="M51.2225 25.2746C51.2225 11.2833 39.8398 0 25.7251 0C11.6104 0 0 11.2833 0 25.2746C0 39.2658 11.6104 50.7748 25.7251 50.7748C39.8398 50.7748 51.2225 39.2658 51.2225 25.2746ZM6.82967 25.2746C6.82967 14.8939 15.2529 6.5443 25.7251 6.5443C36.1973 6.5443 44.3929 15.1196 44.3929 25.2746C44.3929 35.4295 35.9696 44.0048 25.4974 44.0048C15.0253 44.0048 6.82967 35.6552 6.82967 25.2746Z" fill="#061649"/>
<path d="M26.6387 39.4925V35.8818C30.2812 35.2048 32.1025 32.7225 32.1025 30.0145C32.1025 26.8552 30.2812 25.0499 26.6387 23.6959C23.6792 22.3419 22.3133 21.4392 22.3133 19.8596C22.3133 18.5056 23.2239 16.9259 25.9558 16.9259C28.2323 16.9259 29.5983 17.6029 30.2812 18.0542L31.1918 15.7976C30.2812 15.1206 28.6876 14.6692 26.6387 14.6692V11.0586H24.3622V14.4436C21.4027 15.1206 19.3537 17.3772 19.3537 20.0852C19.3537 23.0189 21.6303 24.5985 25.0451 26.1782C27.5494 27.3065 28.9153 28.4348 28.9153 30.2402C28.9153 32.2712 27.3217 33.6252 24.8175 33.6252C22.7686 33.6252 20.9473 32.9482 19.8091 32.0455L18.8984 34.3022C20.0367 35.2048 22.3133 35.8818 24.1345 35.8818V39.2668H26.6387V39.4925Z" fill="#061649"/>
</svg>
