<svg width="106" height="106" viewBox="0 0 106 106" fill="none" xmlns="http://www.w3.org/2000/svg">
<path d="M97.8788 74.4254C98.1044 72.6211 98.1044 70.8169 98.1044 68.7871C98.1044 41.2722 75.7767 19.17 48.4873 19.17C28.8661 19.17 11.7256 30.8977 3.83203 47.5871C6.53841 22.7786 27.7384 3.38281 53.2235 3.38281C80.5129 3.38281 102.841 25.4849 102.841 52.9998C102.841 60.6679 101.036 67.8849 97.8788 74.4254Z" fill="#EDF6FF"/>
<path d="M98.3367 68.7889C98.3367 70.5932 98.3367 72.6229 98.1112 74.4272C89.992 91.1166 72.8516 102.619 53.2303 102.619C25.7154 102.619 3.61328 80.291 3.61328 53.0017C3.61328 51.1974 3.61328 49.1676 3.83881 47.3634C11.7324 30.8995 28.8729 19.1719 48.7197 19.1719C76.009 19.1719 98.3367 41.4995 98.3367 68.7889Z" fill="#DCF2FF"/>
<path d="M53 0C23.6809 0 0 23.6809 0 53C0 82.3191 23.6809 106 53 106C82.3191 106 106 82.3191 106 53C106 23.6809 82.3191 0 53 0ZM35.8596 10.1489C32.9277 13.983 30.4468 18.7191 28.6426 24.3574C25.2596 23.6809 22.1021 22.7787 18.9447 21.8766C23.6808 16.6894 29.5447 12.6298 35.8596 10.1489ZM14.6596 27.2894C18.4936 28.6426 22.5532 29.7702 26.8383 30.6723C25.4851 36.5362 24.583 42.8511 24.3574 49.617H6.99149C7.44255 41.4979 10.1489 33.8298 14.6596 27.2894ZM14.6596 78.7106C10.3745 72.1702 7.66808 64.7277 6.99149 56.383H24.3574C24.583 63.1489 25.4851 69.4638 26.8383 75.3277C22.5532 76.2298 18.4936 77.3574 14.6596 78.7106ZM18.9447 84.3489C22.1021 83.4468 25.2596 82.5447 28.6426 81.8681C30.4468 87.2808 32.9277 92.2425 35.8596 96.0766C29.5447 93.3702 23.6808 89.3106 18.9447 84.3489ZM49.617 98.5574C43.9787 96.5277 39.017 89.9872 35.4085 80.5149C39.9192 79.8383 44.6553 79.3872 49.617 79.3872V98.5574ZM49.617 72.6213C44.2043 72.8468 38.7915 73.2979 33.6043 73.9745C32.2511 68.5617 31.3489 62.4723 31.1234 56.1574H49.617V72.6213ZM49.617 49.617H31.1234C31.3489 43.3021 32.2511 37.2128 33.6043 31.8C38.7915 32.4766 44.2043 33.1532 49.617 33.1532V49.617ZM49.617 26.6128C44.8809 26.3872 40.1447 26.1617 35.4085 25.4851C38.7915 16.0128 43.7532 9.47234 49.617 7.44255V26.6128ZM87.0553 21.6511C83.8979 22.5532 80.7404 23.4553 77.3574 24.1319C75.5532 18.7191 73.0723 13.7574 70.1404 9.9234C76.4553 12.6298 82.3191 16.6894 87.0553 21.6511ZM56.383 7.44255C62.0213 9.47234 66.983 16.0128 70.5915 25.4851C66.0808 26.1617 61.3447 26.6128 56.383 26.6128V7.44255ZM56.383 33.3787C61.7957 33.1532 67.2085 32.7021 72.3957 32.0255C73.7489 37.4383 74.6511 43.5277 74.8766 49.8426H56.383V33.3787V33.3787ZM56.383 56.383H74.8766C74.6511 62.6979 73.7489 68.7872 72.3957 74.2C67.2085 73.5234 61.7957 72.8468 56.383 72.8468V56.383ZM56.383 98.5574V79.3872C61.1191 79.6128 65.8553 79.8383 70.5915 80.5149C66.983 89.9872 62.0213 96.7532 56.383 98.5574ZM70.1404 95.8511C73.0723 92.017 75.5532 87.2809 77.3574 81.6426C80.7404 82.3191 83.8979 83.2213 87.0553 84.1234C82.3191 89.3106 76.4553 93.3702 70.1404 95.8511ZM91.3404 78.7106C87.5064 77.3574 83.4468 76.2298 79.1617 75.3277C80.5149 69.4638 81.417 63.1489 81.6426 56.383H99.0085C98.5574 64.5021 95.8511 72.1702 91.3404 78.7106ZM99.0085 49.617H81.6426C81.417 42.8511 80.5149 36.5362 79.1617 30.6723C83.4468 29.7702 87.5064 28.6426 91.3404 27.2894C95.8511 33.8298 98.5574 41.4979 99.0085 49.617Z" fill="#061649"/>
</svg>
