<svg width="97" height="97" viewBox="0 0 97 97" fill="none" xmlns="http://www.w3.org/2000/svg">
<path d="M86.6806 20.9336H70.7891V93.8909H86.6806V20.9336Z" fill="#C1E5FF"/>
<path d="M56.5477 40.8301H40.6562V93.8899H56.5477V40.8301Z" fill="#C1E5FF"/>
<path d="M26.2118 60.7305H10.3203V93.8929H26.2118V60.7305Z" fill="#C1E5FF"/>
<path d="M86.6806 20.9336H70.7891V30.0533H86.6806V20.9336Z" fill="#DCF2FF"/>
<path d="M56.5477 40.8301H40.6562V50.157H56.5477V40.8301Z" fill="#DCF2FF"/>
<path d="M26.2118 60.7305H10.3203V70.4719H26.2118V60.7305Z" fill="#DCF2FF"/>
<path d="M56.9583 19.8974C58.6093 19.8974 60.054 18.4466 60.054 16.7885V2.69444V2.48718C60.054 2.27991 60.054 2.27991 60.054 2.07265V1.86538V1.65812C60.054 1.65812 60.054 1.45085 59.8476 1.45085C59.8476 1.45085 59.8476 1.24359 59.6413 1.24359L59.4349 1.03632C59.4349 1.03632 59.4349 1.03632 59.4349 0.82906L59.2285 0.621795L59.0221 0.41453L58.8157 0.207265C58.8157 0.207265 58.6093 0.207265 58.6093 0H58.403H58.1966H57.9902C57.7838 0 57.7838 0 57.5774 0H42.3051C40.654 0 39.2093 1.45085 39.2093 3.10897C39.2093 4.76709 40.654 6.21795 42.3051 6.21795H48.703L6.60084 42.6966C5.36254 43.7329 5.15615 45.8056 6.39445 47.0491C7.0136 47.6709 7.83913 48.0855 8.66466 48.0855C9.28381 48.0855 10.1093 47.8782 10.7285 47.2564L53.8625 9.53419V16.7885C53.8625 18.4466 55.3072 19.8974 56.9583 19.8974Z" fill="#061649"/>
<path d="M3.09574 96.9994H10.3191H26.2106H40.6575H56.5489H70.9958H86.8872H93.9043C95.5553 96.9994 97 95.5486 97 93.8905C97 92.2323 95.5553 90.7815 93.9043 90.7815H89.7766V20.9332C89.7766 19.2751 88.3319 17.8242 86.6809 17.8242H70.7894C69.1383 17.8242 67.6936 19.2751 67.6936 20.9332V90.7815H59.4383V40.8306C59.4383 39.1725 57.9936 37.7217 56.3426 37.7217H40.4511C38.8 37.7217 37.3553 39.1725 37.3553 40.8306V90.7815H29.1V60.7281C29.1 59.0699 27.6553 57.6191 26.0043 57.6191H10.3191C8.66809 57.6191 7.2234 59.0699 7.2234 60.7281V90.7815H3.09574C1.44468 90.7815 0 92.2323 0 93.8905C0 95.5486 1.44468 96.9994 3.09574 96.9994ZM73.8851 24.0422H83.5851V90.7815H73.8851V24.0422ZM43.7532 43.9396H53.4532V90.7815H43.7532V43.9396ZM13.4149 63.837H23.1149V90.7815H13.4149V63.837Z" fill="#061649"/>
</svg>
