<svg width="92" height="99" viewBox="0 0 92 99" fill="none" xmlns="http://www.w3.org/2000/svg">
<path d="M68.6369 56.508C66.3421 48.3761 60.0836 41.9123 51.9476 39.4102L36.3013 69.4357L20.8637 39.4102C10.6414 42.7463 3.33984 52.3378 3.33984 63.5974V75.691C3.33984 80.4868 7.09495 84.2399 11.8931 84.2399H52.5734" fill="#C1E5FF"/>
<path d="M36.5119 33.9865C45.0378 33.9865 51.9495 27.0784 51.9495 18.5567C51.9495 10.0351 45.0378 3.12695 36.5119 3.12695C27.9859 3.12695 21.0742 10.0351 21.0742 18.5567C21.0742 27.0784 27.9859 33.9865 36.5119 33.9865Z" fill="#C1E5FF"/>
<path d="M69.6771 94.6648C80.277 94.6648 88.8699 86.0763 88.8699 75.4818C88.8699 64.8873 80.277 56.2988 69.6771 56.2988C59.0773 56.2988 50.4844 64.8873 50.4844 75.4818C50.4844 86.0763 59.0773 94.6648 69.6771 94.6648Z" fill="#C1E5FF"/>
<path d="M68.6369 56.5076L65.5076 61.7203C62.3784 56.9246 57.5802 53.1714 51.9476 51.2948L36.3013 81.3203L20.8637 51.2948C10.6414 54.631 3.33984 64.2224 3.33984 75.482V63.3884C3.33984 52.1288 10.6414 42.5373 20.8637 39.2012L36.5099 69.2267L52.1562 39.2012C60.0836 41.9118 66.3421 48.3756 68.6369 56.5076Z" fill="#DCF2FF"/>
<path d="M51.9462 18.5582C51.9462 19.8093 51.7376 21.2689 51.5289 22.3114C49.86 15.6391 43.8101 10.6348 36.5085 10.6348C29.2069 10.6348 23.1571 15.6391 21.4881 22.3114C21.0709 21.0603 21.0709 19.8093 21.0709 18.5582C20.8623 10.0093 27.9552 2.91992 36.5085 2.91992C45.0618 2.91992 51.9462 10.0093 51.9462 18.5582Z" fill="#DCF2FF"/>
<path d="M88.8722 75.6888C88.8722 76.9399 88.8722 77.9825 88.455 79.2335C86.786 70.2676 79.0672 63.5952 69.6794 63.5952C60.2917 63.5952 52.5729 70.4761 50.9039 79.2335C50.6953 78.191 50.6953 76.9399 50.6953 75.6888C50.6953 65.0548 59.2486 56.5059 69.8881 56.5059C80.5275 56.5059 88.8722 65.0548 88.8722 75.6888Z" fill="#DCF2FF"/>
<path d="M60.5 76.1058L67.1757 82.5696L78.6497 71.1016" stroke="#D5B5AF" stroke-width="6.25691" stroke-miterlimit="10" stroke-linejoin="round"/>
<path d="M0 63.5979V75.6915C0 82.1554 5.21542 87.3681 11.6825 87.3681H50.6939C54.6576 93.6235 61.542 98.0022 69.678 98.0022C81.9864 98.0022 92 87.9937 92 75.6915C92 63.8064 82.6122 54.0064 70.9297 53.3809C67.8005 45.4575 61.3333 38.9937 52.9887 36.4915C51.5283 36.0745 49.8594 36.7 49.2336 37.9511L36.5079 62.7639L23.7823 37.9511C23.1565 36.4915 21.4875 35.866 20.0272 36.4915C7.92744 40.2447 0 51.0873 0 63.5979ZM85.5329 75.483C85.5329 84.2405 78.4399 91.5383 69.4694 91.5383C60.4989 91.5383 53.4059 84.449 53.4059 75.483C53.4059 66.5171 60.4989 59.4277 69.4694 59.4277C78.4399 59.4277 85.5329 66.7256 85.5329 75.483ZM19.1927 43.1639L33.5873 70.6873C34.2132 71.7298 35.2562 72.3554 36.2993 72.3554C37.3424 72.3554 38.5941 71.7298 39.0113 70.6873L53.4059 43.1639C58.2041 45.249 61.9592 49.2107 64.254 53.7979C54.449 56.0915 47.356 65.0575 47.356 75.483C47.356 77.3596 47.5646 79.2362 47.9819 80.9043H11.6825C8.7619 80.9043 6.2585 78.4022 6.2585 75.483V63.3894C6.2585 54.632 11.2653 46.9171 19.1927 43.1639Z" fill="#061649"/>
<path d="M36.3013 37.1149C46.5235 37.1149 54.8682 28.7745 54.8682 18.5574C54.8682 8.34042 46.5235 0 36.3013 0C26.079 0 17.7344 8.34042 17.7344 18.5574C17.7344 28.7745 26.079 37.1149 36.3013 37.1149ZM36.3013 6.04681C43.1856 6.04681 48.6097 11.6766 48.6097 18.3489C48.6097 25.0213 42.977 30.6511 36.3013 30.6511C29.6255 30.6511 23.9929 25.0213 23.9929 18.3489C23.9929 11.6766 29.4169 6.04681 36.3013 6.04681Z" fill="#061649"/>
<path d="M66.9611 84.448C67.7956 84.448 68.6301 84.2394 69.2559 83.6139L80.9384 71.9373L76.3489 67.5586L66.9611 76.9416L62.5802 72.5629L58.1992 76.9416L64.6663 83.4054C65.2922 84.2394 66.1267 84.448 66.9611 84.448Z" fill="#061649"/>
</svg>
