<svg width="105" height="105" viewBox="0 0 105 105" fill="none" xmlns="http://www.w3.org/2000/svg">
<path d="M101.649 3.34375H3.35156V77.5794H101.649V3.34375Z" fill="#C1E5FF"/>
<path d="M101.649 3.34375H3.35156V9.80872H101.649V3.34375Z" fill="#DCF2FF"/>
<path d="M101.649 58.1836H3.35156V77.5785H101.649V58.1836Z" fill="#EDF6FF"/>
<path d="M101.649 58.1836H3.35156V64.6486H101.649V58.1836Z" fill="#C8CEDB"/>
<path d="M80.4253 101.436H24.5742L38.8721 77.582H66.1274L80.4253 101.436Z" fill="#B0BBD6"/>
<path d="M70.818 85.3846L66.1265 77.582H38.8712L34.1797 85.3846H70.818Z" fill="#929FC5"/>
<path d="M81.5441 18.0547L56.2995 41.6853L45.3526 31.4305L26.3633 48.819" stroke="#95D6FF" stroke-width="6.69501" stroke-miterlimit="10" stroke-linecap="round" stroke-linejoin="round"/>
<path d="M81.5479 31.2076V18.0547H67.25" stroke="#95D6FF" stroke-width="6.69501" stroke-miterlimit="10" stroke-linecap="round" stroke-linejoin="round"/>
<path d="M101.649 0H3.35106C1.56383 0 0 1.56051 0 3.34395V77.5796C0 79.3631 1.56383 80.9236 3.35106 80.9236H33.0638L21.8936 99.8726C21.2234 100.987 21.2234 102.102 21.8936 103.217C22.5638 104.331 23.6809 105 24.7979 105H80.6489C81.766 105 82.883 104.331 83.5532 103.217C84.2234 102.102 84.2234 100.987 83.5532 99.8726L72.383 80.9236H101.649C103.436 80.9236 105 79.3631 105 77.5796V3.34395C105 1.56051 103.436 0 101.649 0ZM98.2979 6.6879V54.8408H6.70213V6.6879H98.2979ZM74.3936 98.0892H30.6064L40.883 80.9236H64.3404L74.3936 98.0892ZM66.1277 74.2357H38.8723H6.70213V61.5287H98.2979V74.2357H66.1277Z" fill="#061649"/>
<path d="M52.4995 71.1156C54.3502 71.1156 55.8506 69.6185 55.8506 67.7717C55.8506 65.9249 54.3502 64.4277 52.4995 64.4277C50.6488 64.4277 49.1484 65.9249 49.1484 67.7717C49.1484 69.6185 50.6488 71.1156 52.4995 71.1156Z" fill="#6C6CAA"/>
<path d="M26.3604 50.1593C27.254 50.1593 27.9243 49.9363 28.5945 49.2675L45.3498 33.8854L54.0626 42.1338C55.403 43.2484 57.4136 43.2484 58.754 42.1338L78.1902 23.8535V29.2038C78.1902 30.9873 79.754 32.5478 81.5413 32.5478C83.3285 32.5478 84.8923 30.9873 84.8923 29.2038V16.051C84.8923 15.6051 84.8923 15.3822 84.6689 14.9363C84.6689 14.9363 84.6689 14.9363 84.6689 14.7134C84.4455 14.2675 84.2221 14.0446 83.9987 13.5988C83.7753 13.3758 83.3285 13.1529 83.1051 12.93C82.6583 12.707 82.4349 12.707 81.9881 12.707H67.9136C66.1264 12.707 64.5625 14.2675 64.5625 16.051C64.5625 17.8344 66.1264 19.3949 67.9136 19.3949H73.4987L56.7434 35L48.0306 26.9745C46.6902 25.8599 44.6796 25.8599 43.5626 26.9745L24.5732 44.3631C23.2328 45.7007 23.0094 47.707 24.3498 49.0446C24.5732 49.7134 25.4668 50.1593 26.3604 50.1593Z" fill="#061649"/>
</svg>
