<svg width="94" height="93" viewBox="0 0 94 93" fill="none" xmlns="http://www.w3.org/2000/svg">
<path d="M74.6015 64.1086C78.4265 64.1086 81.5273 61.008 81.5273 57.1832C81.5273 53.3584 78.4265 50.2578 74.6015 50.2578C70.7766 50.2578 67.6758 53.3584 67.6758 57.1832C67.6758 61.008 70.7766 64.1086 74.6015 64.1086Z" fill="#DCF2FF"/>
<path d="M18.4023 64.1086C22.2273 64.1086 25.3281 61.008 25.3281 57.1832C25.3281 53.3584 22.2273 50.2578 18.4023 50.2578C14.5773 50.2578 11.4766 53.3584 11.4766 57.1832C11.4766 61.008 14.5773 64.1086 18.4023 64.1086Z" fill="#DCF2FF"/>
<path d="M46.5039 16.8176C50.3289 16.8176 53.4296 13.717 53.4296 9.89221C53.4296 6.06741 50.3289 2.9668 46.5039 2.9668C42.6789 2.9668 39.5781 6.06741 39.5781 9.89221C39.5781 13.717 42.6789 16.8176 46.5039 16.8176Z" fill="#DCF2FF"/>
<path d="M90.0359 90.0295H89.0465C86.6719 84.2913 81.1313 80.3339 74.7992 80.3339C68.2692 80.3339 62.7286 84.2913 60.5519 90.0295H59.5625C59.5625 81.5211 66.4883 74.5957 74.9971 74.5957C83.1101 74.5957 90.0359 81.5211 90.0359 90.0295Z" fill="#FFEAD4"/>
<path d="M89.044 90.0296H60.3516C62.7261 84.2914 68.2667 80.334 74.5988 80.334C81.1289 80.334 86.6695 84.2914 89.044 90.0296Z" fill="#FFE0B9"/>
<path d="M33.64 90.0295H32.6506C30.4739 84.2913 24.7354 80.3339 18.4033 80.3339C11.8733 80.3339 6.33269 84.2913 4.15602 90.0295H2.96875C2.96875 81.5211 9.89451 74.5957 18.4033 74.5957C26.7142 74.5957 33.64 81.5211 33.64 90.0295Z" fill="#D8F8D4"/>
<path d="M32.6508 90.0296H4.15625C6.33292 84.2914 11.8735 80.334 18.4035 80.334C24.7357 80.334 30.2763 84.2914 32.6508 90.0296Z" fill="#B0F0A8"/>
<path d="M61.9369 42.5393C61.9369 42.7371 61.9369 42.7371 61.9369 42.5393H60.7496C58.5729 36.8011 53.0323 32.8437 46.5023 32.8437C39.9723 32.8437 34.4317 36.8011 32.255 42.5393H31.2656C31.2656 34.0309 38.1914 27.1055 46.7002 27.1055C55.0111 27.3033 61.9369 34.2288 61.9369 42.5393Z" fill="#FFEBEF"/>
<path d="M60.7524 42.7386H32.2578C34.4345 37.0003 39.9751 33.043 46.5051 33.043C53.0351 33.043 58.5757 37.0003 60.7524 42.7386Z" fill="#FFCADA"/>
<path d="M74.5971 67.2752C80.1377 67.2752 84.491 62.7242 84.491 57.3817C84.491 51.8414 80.1377 47.4883 74.5971 47.4883C69.0565 47.4883 64.7031 52.0393 64.7031 57.3817C64.7031 62.7242 69.2543 67.2752 74.5971 67.2752ZM74.5971 53.2265C76.7737 53.2265 78.5547 55.0073 78.5547 57.1839C78.5547 59.3604 76.7737 61.1412 74.5971 61.1412C72.4204 61.1412 70.6395 59.3604 70.6395 57.1839C70.6395 55.0073 72.4204 53.2265 74.5971 53.2265Z" fill="#061649"/>
<path d="M74.5981 71.627C64.5062 71.627 56.1953 79.7396 56.1953 90.0288C56.1953 91.6117 57.5805 92.9968 59.1635 92.9968H90.0326C91.6156 92.9968 92.8029 91.8096 93.0008 90.2266V90.0288C93.0008 79.9375 84.6899 71.627 74.5981 71.627ZM62.7253 87.0607C64.1105 81.7183 68.8596 77.563 74.7959 77.563C80.5344 77.563 85.4814 81.5204 86.8665 87.0607H62.7253Z" fill="#061649"/>
<path d="M8.51172 57.1845C8.51172 62.7248 12.8651 67.0779 18.4057 67.0779C23.9463 67.0779 28.2996 62.5269 28.2996 57.1845C28.2996 51.6441 23.9463 47.291 18.4057 47.291C12.8651 47.291 8.51172 51.842 8.51172 57.1845ZM18.4057 53.2271C20.5823 53.2271 22.3632 55.0079 22.3632 57.1845C22.3632 59.361 20.5823 61.1418 18.4057 61.1418C16.229 61.1418 14.4481 59.361 14.4481 57.1845C14.4481 55.0079 16.229 53.2271 18.4057 53.2271Z" fill="#061649"/>
<path d="M0 90.0301C0 91.6131 1.38515 92.9982 2.96818 92.9982H33.6394C35.2224 92.9982 36.4097 91.8109 36.6076 90.228V90.0301C36.6076 79.9388 28.2967 71.8262 18.2049 71.8262C8.11304 71.8262 0 79.9388 0 90.0301ZM18.4027 77.5644C24.1412 77.5644 29.0882 81.5218 30.4734 87.0621H6.33213C7.5194 81.7196 12.4664 77.5644 18.4027 77.5644Z" fill="#061649"/>
<path d="M56.3973 9.89345C56.3973 4.35312 52.0439 0 46.5033 0C40.9627 0 36.6094 4.55099 36.6094 9.89345C36.6094 15.4338 40.9627 19.7869 46.5033 19.7869C52.0439 19.7869 56.3973 15.4338 56.3973 9.89345ZM42.5457 9.89345C42.5457 7.71689 44.3267 5.93607 46.5033 5.93607C48.68 5.93607 50.4609 7.71689 50.4609 9.89345C50.4609 12.07 48.68 13.8508 46.5033 13.8508C44.3267 13.8508 42.5457 12.07 42.5457 9.89345Z" fill="#061649"/>
<path d="M61.9349 45.7071C63.518 45.7071 64.9031 44.5199 64.9031 42.937V42.7391C64.9031 32.6478 56.5922 24.5352 46.5004 24.5352C36.4086 24.5352 28.0977 32.6478 28.0977 42.5412C28.0977 42.7391 28.0977 42.7391 28.0977 42.937C28.2955 44.5199 29.4828 45.5093 31.0658 45.5093H43.5322V55.9963L34.6277 65.0983C33.4404 66.2855 33.4404 68.0663 34.6277 69.2536C35.8149 70.4408 37.5958 70.4408 38.7831 69.2536L46.5004 61.3388L54.2177 69.2536C54.8113 69.8472 55.6028 70.045 56.3943 70.045C57.1859 70.045 57.9774 69.8472 58.571 69.2536C59.7583 68.0663 59.7583 66.2855 58.571 65.0983L49.6665 55.9963V45.5093H61.9349V45.7071ZM34.4298 39.7711C35.8149 34.4286 40.564 30.2734 46.5004 30.2734C52.4368 30.2734 57.1859 34.4286 58.571 39.7711H34.4298Z" fill="#061649"/>
</svg>
