<svg width="69" height="105" viewBox="0 0 69 105" fill="none" xmlns="http://www.w3.org/2000/svg">
<path d="M3.35938 96.9567C3.35938 99.6375 5.37561 101.648 8.06392 101.648H60.934C63.6224 101.648 65.6386 99.6375 65.6386 96.9567V81.3184H3.35938V96.9567Z" fill="#C8CEDB"/>
<path d="M65.4146 24.5742H3.35938V81.5423H65.4146V24.5742Z" fill="#C1E5FF"/>
<path d="M65.4146 24.5742H3.35938V32.3934H65.4146V24.5742Z" fill="#DCF2FF"/>
<path d="M65.6386 8.04305C65.6386 5.3622 63.6224 3.35156 60.934 3.35156H8.06392C5.37561 3.35156 3.35938 5.3622 3.35938 8.04305V24.575H65.4146V8.04305H65.6386Z" fill="#B0BBD6"/>
<path d="M65.6386 9.83029V8.04305C65.6386 5.3622 63.6224 3.35156 60.934 3.35156H8.06392C5.37561 3.35156 3.35938 5.3622 3.35938 8.04305V9.83029H65.6386V9.83029Z" fill="#C8CEDB"/>
<path d="M65.6386 3.35156V5.1388C65.6386 7.81965 63.6224 9.83029 60.934 9.83029H8.06392C5.37561 9.83029 3.35938 7.81965 3.35938 5.1388V3.35156H65.6386Z" fill="#C8CEDB"/>
<path d="M65.6386 96.0625V97.6263C65.6386 99.8604 63.6224 101.871 60.934 101.871H8.06392C5.37561 101.871 3.35938 100.084 3.35938 97.6263V96.0625H65.6386Z" fill="#B0BBD6"/>
<path d="M34.4971 96.0635C36.353 96.0635 37.8575 94.5631 37.8575 92.7124C37.8575 90.8617 36.353 89.3613 34.4971 89.3613C32.6412 89.3613 31.1367 90.8617 31.1367 92.7124C31.1367 94.5631 32.6412 96.0635 34.4971 96.0635Z" fill="#B0BBD6"/>
<path d="M30.2461 15.1934H38.7591" stroke="#929FC5" stroke-width="6.71145" stroke-miterlimit="10" stroke-linecap="round" stroke-linejoin="round"/>
<path d="M60.9351 0H8.06493C3.58441 0 0 3.57447 0 8.04255V96.9575C0 101.426 3.58441 105 8.06493 105H60.9351C65.4156 105 69 101.426 69 96.9575V8.04255C69 3.57447 65.4156 0 60.9351 0ZM62.2792 96.9575C62.2792 97.6277 61.6071 98.2979 60.9351 98.2979H8.06493C7.39286 98.2979 6.72078 97.6277 6.72078 96.9575V84.6702H62.0552V96.9575H62.2792ZM62.2792 78.1915H6.72078V27.9255H62.0552V78.1915H62.2792ZM62.2792 21.2234H6.72078V8.04255C6.72078 7.37234 7.39286 6.70213 8.06493 6.70213H60.9351C61.6071 6.70213 62.2792 7.37234 62.2792 8.04255V21.2234Z" fill="#061649"/>
<path d="M34.4971 94.9463C36.2893 94.9463 37.8575 93.3824 37.8575 91.5952C37.8575 89.808 36.2893 88.2441 34.4971 88.2441C32.7049 88.2441 31.1367 89.808 31.1367 91.5952C31.1367 93.3824 32.7049 94.9463 34.4971 94.9463Z" fill="#061649"/>
<path d="M38.7601 10.498H30.2471C28.4549 10.498 26.8867 12.0619 26.8867 13.8491C26.8867 15.6363 28.4549 17.2002 30.2471 17.2002H38.7601C40.5523 17.2002 42.1205 15.6363 42.1205 13.8491C42.1205 12.0619 40.5523 10.498 38.7601 10.498Z" fill="#061649"/>
</svg>
